<svg width="826" height="826" viewBox="0 0 826 826" fill="none" xmlns="http://www.w3.org/2000/svg">
<path d="M412.63 0C185.11 0 0 185.12 0 412.66C0.177232 436.337 2.34486 459.957 6.48 483.27C6.48 483.41 6.73 483.35 6.78 483.47C7.5494 486.337 9.23719 488.873 11.585 490.69C13.9329 492.507 16.8114 493.505 19.78 493.53C23.4276 493.527 26.925 492.076 29.5033 489.496C32.0817 486.916 33.53 483.418 33.53 479.77C33.465 479.325 33.3749 478.885 33.26 478.45L33.5 478.34C29.631 456.665 27.6237 434.698 27.5 412.68C27.5 199.98 199.93 27.55 412.62 27.55C625.31 27.55 797.76 200 797.76 412.68C797.76 625.36 625.33 797.8 412.63 797.8C270.49 797.8 146.63 720.58 79.94 606.01C79.94 605.94 79.85 605.9 79.83 605.83C79.65 605.53 79.45 605.24 79.28 604.94C78.142 602.734 76.4224 600.881 74.3073 599.582C72.1922 598.283 69.7621 597.587 67.28 597.57C63.6341 597.573 60.1383 599.022 57.5602 601.6C54.9822 604.178 53.5326 607.674 53.53 611.32C53.5935 614.154 54.5527 616.895 56.27 619.15L56.04 619.29C127.57 742.29 260.45 825.29 412.65 825.29C640.16 825.29 825.27 640.2 825.27 412.66C825.27 185.12 640.16 0 412.63 0Z" fill="#E8E8E8"/>
<path d="M412.639 467.43C494.959 467.43 561.949 534.43 561.949 616.74H589.459C589.459 519.25 510.139 439.92 412.639 439.92C315.139 439.92 235.809 519.25 235.809 616.74H263.319C263.319 534.41 330.269 467.43 412.639 467.43Z" fill="#E8E8E8"/>
<path d="M235.809 616.74C235.809 620.387 237.257 623.884 239.836 626.463C242.415 629.042 245.912 630.49 249.559 630.49C253.205 630.49 256.703 629.042 259.281 626.463C261.86 623.884 263.309 620.387 263.309 616.74C263.309 613.094 261.86 609.596 259.281 607.018C256.703 604.439 253.205 602.99 249.559 602.99C245.912 602.99 242.415 604.439 239.836 607.018C237.257 609.596 235.809 613.094 235.809 616.74Z" fill="#E8E8E8"/>
<path d="M561.949 616.74C561.949 620.387 563.398 623.884 565.977 626.463C568.555 629.042 572.052 630.49 575.699 630.49C579.346 630.49 582.843 629.042 585.422 626.463C588.001 623.884 589.449 620.387 589.449 616.74C589.449 613.094 588.001 609.596 585.422 607.018C582.843 604.439 579.346 602.99 575.699 602.99C572.052 602.99 568.555 604.439 565.977 607.018C563.398 609.596 561.949 613.094 561.949 616.74Z" fill="#E8E8E8"/>
<path d="M360.198 422.547C380.6 442.949 408.271 454.411 437.124 454.411C465.977 454.411 493.648 442.949 514.05 422.547C534.452 402.145 545.914 374.473 545.914 345.621C545.914 316.768 534.452 289.097 514.05 268.694C503.948 258.592 491.955 250.579 478.756 245.112C465.557 239.645 451.411 236.831 437.124 236.831C408.271 236.831 380.6 248.292 360.198 268.694C350.096 278.797 342.082 290.789 336.615 303.988C331.148 317.187 328.334 331.334 328.334 345.621C328.334 374.473 339.796 402.145 360.198 422.547Z" fill="#C7BAFF"/>
<path d="M412.63 467.42C337.48 467.42 276.34 406.28 276.34 331.12C276.34 255.96 337.48 194.82 412.63 194.82C487.78 194.82 548.93 255.97 548.93 331.12C548.93 406.27 487.79 467.42 412.63 467.42ZM412.63 222.33C391.111 222.33 370.075 228.711 352.183 240.667C334.29 252.622 320.345 269.615 312.111 289.496C303.876 309.377 301.722 331.254 305.921 352.359C310.12 373.465 320.483 392.851 335.7 408.067C350.917 423.282 370.304 433.644 391.41 437.84C412.516 442.037 434.392 439.881 454.273 431.645C474.153 423.409 491.145 409.462 503.099 391.569C515.052 373.675 521.432 352.639 521.43 331.12C521.395 302.276 509.921 274.623 489.524 254.228C469.128 233.833 441.474 222.362 412.63 222.33Z" fill="#E8E8E8"/>
</svg>
